# xmcd CD database file
# Copyright (C) 1993-1998 Ti Kan
#
# Track frame offsets:
#	150
#	13090
#	23497
#	34665
#	43420
#	57647
#	69362
#	81637
#	95295
#	107860
#	119635
#	132525
#	143955
#	156077
#	167012
#	178352
#	190950
#	201875
#	212490
#
# Disc length: 2970 seconds
#
# Revision: 1
# Processed by: cddbd v1.4b41PL1 Copyright (c) Steve Scherf et al.
# Submitted via: CDValet v3.31 - Copyright (c) 1997 Greg Leichner
#
DISCID=200b9813
DTITLE=Dee Clark - Golden Classics
DYEAR=1900
DGENRE=
TTITLE0=Raindrops
TTITLE1=Hey Little Girl
TTITLE2=Nobody But You
TTITLE3=Crossfire Time
TTITLE4=I'm Coming Home
TTITLE5=That's My Girl
TTITLE6=It's Raining
TTITLE7=Come Closer
TTITLE8=Warm Summer Breezes
TTITLE9=Heartbreak
TTITLE10=In My Apartment
TTITLE11=I Ain't Gonna Be Your Fool
TTITLE12=T.C.B.
TTITLE13=It's Impossible
TTITLE14=She's My Baby
TTITLE15=I Can't Run Away
TTITLE16=Hot Potato
TTITLE17=I Don't Need (Nobody Like You)
TTITLE18=Ole Fashion Love
EXTD=
EXTT0=
EXTT1=
EXTT2=
EXTT3=
EXTT4=
EXTT5=
EXTT6=
EXTT7=
EXTT8=
EXTT9=
EXTT10=
EXTT11=
EXTT12=
EXTT13=
EXTT14=
EXTT15=
EXTT16=
EXTT17=
EXTT18=
PLAYORDER=
